<svg width="35" height="13" viewBox="0 0 35 13" fill="none" xmlns="http://www.w3.org/2000/svg">
<path d="M10.1426 3.115C10.1426 3.705 9.97761 4.25 9.64761 4.75C9.31761 5.25 8.77261 5.63 8.01261 5.89L9.75261 10.375H6.40761L5.08761 6.22H4.92261L4.03761 10.375H0.797607L2.82261 0.849999H6.76761C7.22761 0.849999 7.66261 0.879999 8.07261 0.94C8.48261 0.99 8.83761 1.1 9.13761 1.27C9.44761 1.43 9.69261 1.66 9.87261 1.96C10.0526 2.25 10.1426 2.635 10.1426 3.115ZM5.82261 5.26C6.08261 5.26 6.30261 5.175 6.48261 5.005C6.67261 4.825 6.82261 4.61 6.93261 4.36C7.05261 4.11 7.13761 3.845 7.18761 3.565C7.23761 3.275 7.26261 3.025 7.26261 2.815C7.26261 2.555 7.21761 2.335 7.12761 2.155C7.03761 1.965 6.84261 1.87 6.54261 1.87H5.86761L5.11761 5.26H5.82261ZM11.2198 4.48C11.7298 4.23 12.2498 4.05 12.7798 3.94C13.3198 3.82 13.9198 3.76 14.5798 3.76C15.2198 3.76 15.7498 3.81 16.1698 3.91C16.5898 4.01 16.9248 4.155 17.1748 4.345C17.4248 4.535 17.5998 4.76 17.6998 5.02C17.7998 5.28 17.8498 5.575 17.8498 5.905C17.8498 6.095 17.8348 6.3 17.8048 6.52C17.7848 6.74 17.7598 6.925 17.7298 7.075L17.0248 10.375H14.6098L14.3398 9.415H14.2498C13.9298 9.765 13.5548 10.035 13.1248 10.225C12.7048 10.405 12.2848 10.495 11.8648 10.495C11.6248 10.495 11.3898 10.46 11.1598 10.39C10.9298 10.32 10.7248 10.215 10.5448 10.075C10.3648 9.925 10.2198 9.74 10.1098 9.52C9.9998 9.29 9.9448 9.015 9.9448 8.695C9.9448 8.175 10.0848 7.765 10.3648 7.465C10.6548 7.155 11.0298 6.925 11.4898 6.775C11.9598 6.615 12.4848 6.515 13.0648 6.475C13.6548 6.435 14.2448 6.415 14.8348 6.415C14.8548 6.315 14.8798 6.175 14.9098 5.995C14.9398 5.805 14.9548 5.64 14.9548 5.5C14.9548 5.32 14.9048 5.155 14.8048 5.005C14.7148 4.845 14.5198 4.765 14.2198 4.765C13.8698 4.765 13.6098 4.87 13.4398 5.08C13.2798 5.28 13.1748 5.525 13.1248 5.815H10.9348L11.2198 4.48ZM14.6698 7.12H14.3998C14.1098 7.12 13.8598 7.16 13.6498 7.24C13.4498 7.31 13.2848 7.405 13.1548 7.525C13.0348 7.645 12.9448 7.78 12.8848 7.93C12.8248 8.08 12.7948 8.23 12.7948 8.38C12.7948 8.62 12.8548 8.8 12.9748 8.92C13.1048 9.04 13.2548 9.1 13.4248 9.1C13.6348 9.1 13.8398 9.025 14.0398 8.875C14.2498 8.725 14.3798 8.525 14.4298 8.275L14.6698 7.12ZM21.1762 10.375H18.1162L20.2462 0.294999H23.3212L21.1762 10.375ZM25.4207 10.375H22.3607L24.4907 0.294999H27.5657L25.4207 10.375ZM30.5202 3.925L30.9702 8.335L33.3402 3.925H34.9302L31.3152 10.375C30.9552 11.005 30.5902 11.49 30.2202 11.83C29.8502 12.17 29.4452 12.42 29.0052 12.58C28.5752 12.74 28.0952 12.83 27.5652 12.85C27.0452 12.88 26.4502 12.895 25.7802 12.895L26.0052 11.86C26.3352 11.86 26.6402 11.855 26.9202 11.845C27.2102 11.835 27.4402 11.805 27.6102 11.755C27.8402 11.695 28.0052 11.585 28.1052 11.425C28.2052 11.275 28.2552 11.05 28.2552 10.75C28.2552 10.55 28.2352 10.32 28.1952 10.06C28.1652 9.8 28.1302 9.525 28.0902 9.235L27.3552 3.925H30.5202Z" fill="white"/>
</svg>
