<?xml version="1.0" encoding="UTF-8" standalone="no"?>
<svg
   version="1.1"
   width="330.75482"
   height="93.172935"
   viewBox="0 0 330.75482 93.172936"
   xml:space="preserve"
   id="svg1"
   sodipodi:docname="logo.svg"
   inkscape:version="1.3.2 (091e20e, 2023-11-25)"
   xmlns:inkscape="http://www.inkscape.org/namespaces/inkscape"
   xmlns:sodipodi="http://sodipodi.sourceforge.net/DTD/sodipodi-0.dtd"
   xmlns="http://www.w3.org/2000/svg"
   xmlns:svg="http://www.w3.org/2000/svg"><sodipodi:namedview
   id="namedview1"
   pagecolor="#ffffff"
   bordercolor="#000000"
   borderopacity="0.25"
   inkscape:showpageshadow="2"
   inkscape:pageopacity="0.0"
   inkscape:pagecheckerboard="0"
   inkscape:deskcolor="#d1d1d1"
   inkscape:zoom="1.9011129"
   inkscape:cx="110.72462"
   inkscape:cy="56.808831"
   inkscape:window-width="1920"
   inkscape:window-height="1027"
   inkscape:window-x="0"
   inkscape:window-y="25"
   inkscape:window-maximized="0"
   inkscape:current-layer="gEXnmo1_9ZFZYckmps-fy" />
<desc
   id="desc1">Created with Fabric.js 5.3.0</desc>
<defs
   id="defs1"><inkscape:path-effect
   effect="fillet_chamfer"
   id="path-effect1"
   is_visible="true"
   lpeversion="1"
   nodesatellites_param="F,0,0,1,0,2.2537888,0,1 @ F,0,0,1,0,0,0,1 @ F,0,0,1,0,2.7352398,0,1 @ F,0,0,1,0,3.1885378,0,1 @ F,0,0,1,0,0,0,1 @ F,0,0,1,0,3.3714629,0,1"
   radius="0"
   unit="px"
   method="auto"
   mode="F"
   chamfer_steps="1"
   flexible="false"
   use_knot_distance="true"
   apply_no_radius="true"
   apply_with_radius="true"
   only_selected="false"
   hide_knots="false" />
<inkscape:path-effect
   effect="fillet_chamfer"
   id="path-effect1-5"
   is_visible="true"
   lpeversion="1"
   nodesatellites_param="F,0,0,1,0,2.2537888,0,1 @ F,0,0,1,0,0,0,1 @ F,0,0,1,0,2.7352398,0,1 @ F,0,0,1,0,3.1885378,0,1 @ F,0,0,1,0,0,0,1 @ F,0,0,1,0,3.3714629,0,1"
   radius="0"
   unit="px"
   method="auto"
   mode="F"
   chamfer_steps="1"
   flexible="false"
   use_knot_distance="true"
   apply_no_radius="true"
   apply_with_radius="true"
   only_selected="false"
   hide_knots="false" /><inkscape:path-effect
   effect="fillet_chamfer"
   id="path-effect1-5-4"
   is_visible="true"
   lpeversion="1"
   nodesatellites_param="F,0,0,1,0,2.2537888,0,1 @ F,0,0,1,0,0,0,1 @ F,0,0,1,0,2.7352398,0,1 @ F,0,0,1,0,3.1885378,0,1 @ F,0,0,1,0,0,0,1 @ F,0,0,1,0,3.3714629,0,1"
   radius="0"
   unit="px"
   method="auto"
   mode="F"
   chamfer_steps="1"
   flexible="false"
   use_knot_distance="true"
   apply_no_radius="true"
   apply_with_radius="true"
   only_selected="false"
   hide_knots="false" /><inkscape:path-effect
   effect="fillet_chamfer"
   id="path-effect1-9"
   is_visible="true"
   lpeversion="1"
   nodesatellites_param="F,0,0,1,0,2.2537888,0,1 @ F,0,0,1,0,0,0,1 @ F,0,0,1,0,2.7352398,0,1 @ F,0,0,1,0,3.1885378,0,1 @ F,0,0,1,0,0,0,1 @ F,0,0,1,0,3.3714629,0,1"
   radius="0"
   unit="px"
   method="auto"
   mode="F"
   chamfer_steps="1"
   flexible="false"
   use_knot_distance="true"
   apply_no_radius="true"
   apply_with_radius="true"
   only_selected="false"
   hide_knots="false" /></defs>
<g
   transform="translate(259.23065,209.45167)"
   id="gEXnmo1_9ZFZYckmps-fy"
   style="fill:#3262d6;fill-opacity:1;stroke:#142b65;stroke-opacity:1">
<path
   style="opacity:1;fill:#3262d6;fill-opacity:1;fill-rule:nonzero;stroke:#ffffff;stroke-width:0.655;stroke-linecap:round;stroke-linejoin:miter;stroke-miterlimit:4;stroke-dasharray:none;stroke-dashoffset:0;stroke-opacity:1"
   d="m -169.94247,-126.00041 c 5.6991,-2.71385 8.74502,-9.02509 7.32391,-15.1753 l -2.45562,-10.62725 v -10.81026 0 c 0,-1.67507 0.19557,-3.34441 0.58276,-4.97411 l 2.80578,-11.81003 v 0 c 0.36258,-1.5262 0.007,-3.13441 -0.96587,-4.36517 -0.97262,-1.23076 -2.45503,-1.9487 -4.02371,-1.9487 h -1.24808 v 0 c -2.51576,0 -4.79082,1.49532 -5.78871,3.8047 l -7.28072,16.84969 v 0 c -0.27037,0.62571 -0.8368,1.07389 -1.50791,1.19313 -0.67111,0.11925 -1.35727,-0.10639 -1.82662,-0.60067 l -27.04697,-28.4831 v 0 c -0.94861,-0.99897 -2.25677,-1.57788 -3.63403,-1.60821 -1.37726,-0.0303 -2.70964,0.49044 -3.70129,1.44668 l -0.81984,0.79056 v 0 c -2.00856,1.93683 -2.20977,5.08533 -0.46406,7.26206 l 20.3931,25.42844 -24.41831,-26.96188 v 0 c -1.88378,-2.08001 -5.09298,-2.25027 -7.18627,-0.38126 v 0 0 c -2.43499,2.17409 -2.75923,5.86701 -0.74036,8.43216 l 21.04219,26.73596 -19.488,-22.20152 v 0 c -0.84934,-0.96759 -2.0809,-1.51317 -3.36821,-1.49211 -1.28731,0.0211 -2.50037,0.60666 -3.31758,1.60154 l -0.99401,1.21009 v 0 c -1.36617,1.66316 -1.27629,4.08431 0.2094,5.64161 l 20.79179,21.7938 v 0 c 0.0112,0.0118 0.011,0.0303 -3.2e-4,0.0419 -0.0114,0.0116 -0.0299,0.012 -0.0419,0.001 l -15.27329,-14.11631 v 0 c -1.75063,-1.618 -4.47423,-1.53713 -6.12576,0.18189 l -0.76881,0.80024 v 0 c -0.99181,1.03233 -0.93198,2.56109 -0.34719,4.22663 0.58479,1.66554 16.50221,15.79386 17.57313,16.74388 l 18.36232,17.91237 c 3.03986,2.69669 11.756,3.93044 19.09373,0.43628 z"
   stroke-linecap="round"
   id="path1"
   sodipodi:nodetypes="ssccsccscscsccssccscscscccsscscccscccsccscccsscszccss" />
<path
   style="font-size:96px;font-family:Arial;-inkscape-font-specification:Arial;fill:#595959;stroke:none"
   d="m -135.99144,-121.69986 v -68.71875 h 9.09375 v 28.21875 h 35.71875 v -28.21875 h 9.09375 v 68.71875 h -9.09375 v -32.39062 h -35.71875 v 32.39062 z m 100.59375,0 v -7.3125 q -5.8125,8.4375 -15.796875,8.4375 -4.40625,0 -8.25,-1.6875 -3.796875,-1.6875 -5.671875,-4.21875 -1.828125,-2.57812 -2.578125,-6.28125 -0.515625,-2.48437 -0.515625,-7.875 v -30.84375 h 8.4375 v 27.60938 q 0,6.60937 0.515625,8.90625 0.796875,3.32812 3.375,5.25 2.578125,1.875 6.375,1.875 3.796875,0 7.125,-1.92188 3.328125,-1.96875 4.6875,-5.29687 1.40625,-3.375 1.40625,-9.75 v -26.67188 h 8.4375 v 49.78125 z m 20.578125,0 v -68.71875 h 8.4375002 v 68.71875 z m 21.3281252,0 v -68.71875 H 14.94606 v 68.71875 z M 24.88356,-146.59048 q 0,-13.82813 7.6875,-20.48438 6.421875,-5.53125 15.65625,-5.53125 10.265625,0 16.78125,6.75 6.515625,6.70313 6.515625,18.5625 0,9.60938 -2.90625,15.14063 -2.859375,5.48437 -8.390625,8.53125 -5.484375,3.04687 -12,3.04687 -10.453125,0 -16.921875,-6.70312 -6.421875,-6.70313 -6.421875,-19.3125 z m 8.671875,0 q 0,9.5625 4.171875,14.34375 4.171875,4.73437 10.5,4.73437 6.28125,0 10.453125,-4.78125 4.171875,-4.78125 4.171875,-14.57812 0,-9.23438 -4.21875,-13.96875 -4.171875,-4.78125 -10.40625,-4.78125 -6.328125,0 -10.5,4.73437 -4.171875,4.73438 -4.171875,14.29688 z"
   id="text1"
   aria-label="Hullo" /><path
   id="rect1"
   style="fill:#3262d6;fill-opacity:1;stroke:none;stroke-opacity:1"
   d="m -207.66374,-215.76042 c 2.44089,-1.09611 6.52759,-2.73662 9.1406,-2.74562 2.53201,-0.009 6.42931,1.4733 8.95731,2.56648 1.38582,0.59926 2.48336,2.36766 2.48336,3.87829 v 0.38831 c 0,1.76098 -1.28193,2.55763 -2.90516,1.87545 -2.55513,-1.07382 -6.2361,-2.41318 -8.66701,-2.39644 -2.24083,0.0155 -5.57278,1.24781 -7.99098,2.28777 -1.70969,0.73526 -3.05519,-0.0877 -3.05519,-1.9497 v -0.68684 c 0,-1.24473 0.90166,-2.70783 2.03707,-3.2177 z"
   sodipodi:nodetypes="csccscc"
   inkscape:path-effect="#path-effect1"
   inkscape:original-d="m -209.70081,-214.79651 c 0,0 7.25198,-3.69601 11.17767,-3.70953 4.00899,-0.0138 11.44067,3.70953 11.44067,3.70953 v 6.31209 c 0,0 -7.52154,-3.73743 -11.57217,-3.70953 -3.88404,0.0268 -11.04617,3.70953 -11.04617,3.70953 z"
   transform="rotate(41.605104,-227.65807,-194.53769)" /><path
   id="rect1-5"
   style="fill:#3262d6;fill-opacity:1;stroke:none;stroke-opacity:0.4"
   d="m -207.66374,-215.76042 c 2.44089,-1.09611 6.52759,-2.73662 9.1406,-2.74562 2.53201,-0.009 6.42931,1.4733 8.95731,2.56648 1.38582,0.59926 2.48336,2.36766 2.48336,3.87829 v 0.38831 c 0,1.76098 -1.28193,2.55763 -2.90516,1.87545 -2.55513,-1.07382 -6.2361,-2.41318 -8.66701,-2.39644 -2.24083,0.0155 -5.57278,1.24781 -7.99098,2.28777 -1.70969,0.73526 -3.05519,-0.0877 -3.05519,-1.9497 v -0.68684 c 0,-1.24473 0.90166,-2.70783 2.03707,-3.2177 z"
   sodipodi:nodetypes="csccscc"
   inkscape:path-effect="#path-effect1-5"
   inkscape:original-d="m -209.70081,-214.79651 c 0,0 7.25198,-3.69601 11.17767,-3.70953 4.00899,-0.0138 11.44067,3.70953 11.44067,3.70953 v 6.31209 c 0,0 -7.52154,-3.73743 -11.57217,-3.70953 -3.88404,0.0268 -11.04617,3.70953 -11.04617,3.70953 z"
   transform="matrix(0.97056796,0.86186515,-0.86186515,0.97056796,-176.50796,179.76242)" /><path
   id="rect1-55"
   style="fill:#3262d6;fill-opacity:1;stroke:none;stroke-opacity:1"
   d="m -207.66374,-215.76042 c 2.44089,-1.09611 6.52759,-2.73662 9.1406,-2.74562 2.53201,-0.009 6.42931,1.4733 8.95731,2.56648 1.38582,0.59926 2.48336,2.36766 2.48336,3.87829 v 0.38831 c 0,1.76098 -1.28193,2.55763 -2.90516,1.87545 -2.55513,-1.07382 -6.2361,-2.41318 -8.66701,-2.39644 -2.24083,0.0155 -5.57278,1.24781 -7.99098,2.28777 -1.70969,0.73526 -3.05519,-0.0877 -3.05519,-1.9497 v -0.68684 c 0,-1.24473 0.90166,-2.70783 2.03707,-3.2177 z"
   sodipodi:nodetypes="csccscc"
   inkscape:path-effect="#path-effect1-9"
   inkscape:original-d="m -209.70081,-214.79651 c 0,0 7.25198,-3.69601 11.17767,-3.70953 4.00899,-0.0138 11.44067,3.70953 11.44067,3.70953 v 6.31209 c 0,0 -7.52154,-3.73743 -11.57217,-3.70953 -3.88404,0.0268 -11.04617,3.70953 -11.04617,3.70953 z"
   transform="rotate(-138.3949,-204.48656,-167.86989)" /><path
   id="rect1-5-5"
   style="fill:#3262d6;fill-opacity:1;stroke:none;stroke-opacity:0.4"
   d="m -207.66374,-215.76042 c 2.44089,-1.09611 6.52759,-2.73662 9.1406,-2.74562 2.53201,-0.009 6.42931,1.4733 8.95731,2.56648 1.38582,0.59926 2.48336,2.36766 2.48336,3.87829 v 0.38831 c 0,1.76098 -1.28193,2.55763 -2.90516,1.87545 -2.55513,-1.07382 -6.2361,-2.41318 -8.66701,-2.39644 -2.24083,0.0155 -5.57278,1.24781 -7.99098,2.28777 -1.70969,0.73526 -3.05519,-0.0877 -3.05519,-1.9497 v -0.68684 c 0,-1.24473 0.90166,-2.70783 2.03707,-3.2177 z"
   sodipodi:nodetypes="csccscc"
   inkscape:path-effect="#path-effect1-5-4"
   inkscape:original-d="m -209.70081,-214.79651 c 0,0 7.25198,-3.69601 11.17767,-3.70953 4.00899,-0.0138 11.44067,3.70953 11.44067,3.70953 v 6.31209 c 0,0 -7.52154,-3.73743 -11.57217,-3.70953 -3.88404,0.0268 -11.04617,3.70953 -11.04617,3.70953 z"
   transform="matrix(-0.97056796,-0.86186515,0.86186515,-0.97056796,-256.01764,-506.84375)" /></g>
</svg>
